<?xml version="1.0" standalone="no"?>
<!DOCTYPE svg PUBLIC "-//W3C//DTD SVG 20010904//EN"
 "http://www.w3.org/TR/2001/REC-SVG-20010904/DTD/svg10.dtd">
<svg version="1.0" xmlns="http://www.w3.org/2000/svg"
 width="512.000000pt" height="512.000000pt" viewBox="0 0 512.000000 512.000000"
 preserveAspectRatio="xMidYMid meet">

<g transform="translate(0.000000,512.000000) scale(0.100000,-0.100000)"
fill="#000000" stroke="none">
<path d="M2423 5110 c-75 -14 -204 -63 -276 -106 -46 -28 -193 -168 -585 -558
l-523 -521 104 -7 c163 -10 288 -48 394 -119 26 -17 242 -224 478 -459 237
-235 440 -433 452 -439 27 -14 73 -14 110 0 15 5 219 201 453 433 234 233 445
437 470 453 136 91 241 123 428 132 l143 6 -533 531 -533 531 -95 46 c-52 25
-122 53 -155 62 -73 19 -261 28 -332 15z"/>
<path d="M484 3368 c-188 -190 -337 -348 -359 -383 -168 -258 -163 -606 13
-861 22 -33 184 -202 360 -378 l320 -319 198 5 c215 5 272 17 374 75 26 15
226 206 476 454 397 395 436 431 500 461 62 30 78 33 159 33 161 0 152 7 653
-491 365 -362 443 -435 501 -467 102 -56 171 -67 416 -67 l211 0 316 318 c319
320 378 390 429 509 60 140 76 341 39 489 -11 43 -41 122 -67 174 -46 94 -49
97 -382 433 l-335 337 -231 0 c-250 -1 -288 -6 -385 -53 -58 -27 -115 -80
-505 -467 -372 -368 -449 -440 -498 -463 -111 -53 -215 -53 -325 -1 -48 23
-129 99 -492 459 -550 545 -517 525 -870 525 l-196 0 -320 -322z"/>
<path d="M2515 2234 c-5 -1 -23 -5 -40 -9 -22 -5 -145 -120 -465 -439 -245
-243 -457 -446 -486 -464 -116 -73 -258 -112 -402 -112 l-87 0 505 -506 c278
-278 525 -520 550 -539 67 -49 180 -103 268 -127 119 -32 297 -29 417 6 118
36 209 85 297 161 40 35 282 272 537 528 l463 464 -128 7 c-162 9 -234 26
-354 83 l-95 46 -445 443 c-326 324 -453 444 -475 449 -17 4 -34 8 -40 9 -5 2
-14 2 -20 0z"/>
</g>
</svg>
